<svg class="icon" viewBox="0 0 1024 1024" xmlns="http://www.w3.org/2000/svg" width="200" height="200"><defs><style/></defs><path d="M648.551 622.327c-6.102-1.98-44.612-19.327-20.53-92.47h-.348c62.715-64.6 110.654-168.592 110.654-270.939 0-157.367-104.674-239.845-226.274-239.845-121.694 0-225.763 82.478-225.763 239.845 0 102.764 47.673 207.164 110.763 271.572 24.58 64.53-19.388 88.49-28.58 91.837C241.086 668.408 91.67 752.367 91.67 835.265v31.041c0 112.939 218.947 138.612 421.572 138.612 202.926 0 419.11-25.673 419.11-138.612v-31.04c-.008-85.409-150.188-168.695-283.8-212.94z" fill="#dbdbdb"/></svg>